<?xml version="1.0" encoding="UTF-8" standalone="no"?>
<!-- Created with Inkscape (http://www.inkscape.org/) -->

<svg
   xmlns:dc="http://purl.org/dc/elements/1.1/"
   xmlns:cc="http://creativecommons.org/ns#"
   xmlns:rdf="http://www.w3.org/1999/02/22-rdf-syntax-ns#"
   xmlns:svg="http://www.w3.org/2000/svg"
   xmlns="http://www.w3.org/2000/svg"
   xmlns:sodipodi="http://sodipodi.sourceforge.net/DTD/sodipodi-0.dtd"
   xmlns:inkscape="http://www.inkscape.org/namespaces/inkscape"
   width="200"
   height="200"
   id="svg2"
   version="1.1"
   inkscape:version="0.48.3.1 r9886"
   sodipodi:docname="Yin_yang.svg">
  <defs
     id="defs4" />
  <sodipodi:namedview
     id="base"
     pagecolor="#ffffff"
     bordercolor="#666666"
     borderopacity="1.0"
     inkscape:pageopacity="0.0"
     inkscape:pageshadow="2"
     inkscape:zoom="0.35"
     inkscape:cx="237.42857"
     inkscape:cy="119.57143"
     inkscape:document-units="px"
     inkscape:current-layer="layer1"
     showgrid="false"
     inkscape:window-width="1855"
     inkscape:window-height="1056"
     inkscape:window-x="65"
     inkscape:window-y="24"
     inkscape:window-maximized="1"
     fit-margin-top="0"
     fit-margin-left="0"
     fit-margin-right="0"
     fit-margin-bottom="0" />
  <metadata
     id="metadata7">
    <rdf:RDF>
      <cc:Work
         rdf:about="">
        <dc:format>image/svg+xml</dc:format>
        <dc:type
           rdf:resource="http://purl.org/dc/dcmitype/StillImage" />
        <dc:title />
      </cc:Work>
    </rdf:RDF>
  </metadata>
  <g
     inkscape:label="Layer 1"
     inkscape:groupmode="layer"
     id="layer1"
     transform="translate(-137.57143,-451.93361)">
    <g
       id="g3003"
       transform="matrix(0.43290043,0,0,0.43290043,136.70563,451.06781)">
      <circle
         id="circle2987"
         r="231"
         cy="233"
         cx="233"
         sodipodi:cx="233"
         sodipodi:cy="233"
         sodipodi:rx="231"
         sodipodi:ry="231"
         d="M 464,233 C 464,360.57778 360.57778,464 233,464 105.42222,464 2,360.57778 2,233 2,105.42222 105.42222,2 233,2 360.57778,2 464,105.42222 464,233 z" />
      <path
         id="path2989"
         d="m 233,459 a 226,226 0 0 1 0,-452 113,113 0 0 1 0,226 z"
         inkscape:connector-curvature="0"
         style="fill:#ffffff" />
      <circle
         id="circle2991"
         r="113"
         cy="346"
         cx="233"
         sodipodi:cx="233"
         sodipodi:cy="346"
         sodipodi:rx="113"
         sodipodi:ry="113"
         style="fill:#000000"
         d="m 346,346 c 0,62.40818 -50.59182,113 -113,113 -62.40818,0 -113,-50.59182 -113,-113 0,-62.40818 50.59182,-113 113,-113 62.40818,0 113,50.59182 113,113 z" />
      <circle
         id="circle2993"
         r="30"
         cy="120"
         cx="233"
         sodipodi:cx="233"
         sodipodi:cy="120"
         sodipodi:rx="30"
         sodipodi:ry="30"
         d="m 263,120 c 0,16.56854 -13.43146,30 -30,30 -16.56854,0 -30,-13.43146 -30,-30 0,-16.56854 13.43146,-30 30,-30 16.56854,0 30,13.43146 30,30 z" />
      <circle
         id="circle2995"
         r="30"
         cy="346"
         cx="233"
         sodipodi:cx="233"
         sodipodi:cy="346"
         sodipodi:rx="30"
         sodipodi:ry="30"
         style="fill:#ffffff"
         d="m 263,346 c 0,16.56854 -13.43146,30 -30,30 -16.56854,0 -30,-13.43146 -30,-30 0,-16.56854 13.43146,-30 30,-30 16.56854,0 30,13.43146 30,30 z" />
    </g>
  </g>
</svg>
